<?xml version="1.0" standalone="no"?>
<!DOCTYPE svg PUBLIC "-//W3C//DTD SVG 20010904//EN"
 "http://www.w3.org/TR/2001/REC-SVG-20010904/DTD/svg10.dtd">
<svg version="1.0" xmlns="http://www.w3.org/2000/svg"
 width="500.000000pt" height="500.000000pt" viewBox="0 0 500.000000 500.000000"
 preserveAspectRatio="xMidYMid meet">

<g transform="translate(0.000000,500.000000) scale(0.100000,-0.100000)"
fill="#000000" stroke="none">
<path d="M1475 3650 c-8 -13 3 -30 20 -30 27 0 83 -60 100 -108 24 -71 35
-242 35 -594 l0 -318 25 0 25 0 2 409 3 410 249 -410 249 -409 95 0 94 0 -14
23 c-8 12 -140 227 -293 477 -153 250 -293 479 -311 508 l-34 52 -119 0 c-69
0 -122 -4 -126 -10z"/>
<path d="M3115 3382 l-171 -277 -217 -5 -217 -5 -77 -77 c-42 -43 -74 -80 -70
-84 4 -4 22 6 40 24 55 53 89 61 287 69 99 3 180 4 180 0 0 -7 -170 -224 -263
-335 -38 -46 -66 -86 -63 -89 10 -10 33 15 158 171 139 173 160 197 126 141
-117 -190 -188 -307 -188 -311 0 -2 10 -4 23 -4 18 0 37 26 101 131 43 71 80
129 82 127 1 -2 -8 -53 -21 -113 -33 -148 -33 -145 13 -145 l38 0 51 240 51
240 108 175 c59 97 111 178 116 181 4 3 8 -184 8 -415 l0 -421 75 0 75 0 0
358 c0 400 8 501 47 581 20 42 34 57 64 70 24 10 39 23 39 34 0 15 -12 17
-112 17 l-113 0 -170 -278z"/>
<path d="M1935 2415 c0 -51 3 -65 15 -65 12 0 14 10 11 46 -4 51 9 53 29 4 7
-16 16 -30 21 -30 5 0 19 19 31 43 l23 42 3 -38 c2 -21 -2 -45 -9 -53 -9 -11
-8 -14 7 -14 17 0 19 8 19 65 0 79 -15 85 -48 19 l-24 -47 -24 44 c-37 68 -54
63 -54 -16z"/>
<path d="M2148 2473 c16 -6 16 -95 0 -111 -9 -9 -5 -12 18 -12 20 0 25 3 15 9
-9 6 -12 25 -10 65 4 51 2 56 -16 55 -11 0 -14 -3 -7 -6z"/>
<path d="M2238 2473 c16 -6 16 -95 0 -111 -9 -9 -8 -12 8 -12 17 0 19 6 16 52
l-3 53 23 -30 c13 -16 33 -41 45 -55 l21 -25 4 68 c3 62 1 67 -17 66 -11 0
-14 -3 -7 -6 13 -5 17 -83 5 -83 -5 1 -23 21 -41 45 -18 25 -40 45 -50 44 -10
0 -12 -3 -4 -6z"/>
<path d="M2427 2462 c-40 -44 -4 -116 56 -110 27 2 33 8 35 31 3 21 -1 27 -15
27 -14 0 -15 -2 -4 -9 17 -11 7 -41 -14 -41 -34 0 -55 20 -55 53 0 18 5 38 12
45 16 16 65 15 71 0 3 -8 6 -6 6 5 1 24 -70 24 -92 -1z"/>
<path d="M2578 2473 c16 -6 16 -95 0 -111 -9 -9 -8 -12 7 -12 18 0 20 6 17 52
l-3 53 24 -38 c13 -22 27 -39 32 -39 4 0 18 18 31 39 l23 38 1 -47 c0 -28 -5
-48 -12 -51 -7 -3 1 -6 17 -6 20 0 26 2 16 8 -9 6 -12 25 -10 65 5 69 -9 73
-43 10 l-25 -45 -24 45 c-17 32 -30 46 -44 45 -11 0 -14 -3 -7 -6z"/>
<path d="M2829 2451 c-6 -17 -19 -46 -29 -65 -17 -34 -17 -36 0 -36 11 0 17 7
16 18 -1 12 8 18 32 20 30 3 37 -4 33 -30 0 -5 8 -8 18 -8 18 0 18 1 1 36 -10
19 -23 48 -29 65 -13 37 -29 37 -42 0z m35 -17 c10 -26 7 -34 -14 -34 -11 0
-20 4 -20 9 0 17 12 41 20 41 4 0 11 -7 14 -16z"/>
<path d="M1372 2203 c-14 -36 -7 -177 10 -209 38 -70 112 -121 190 -132 38 -5
40 -6 34 -35 -9 -42 -32 -76 -67 -95 -61 -35 -39 -42 136 -42 132 0 165 3 165
13 0 8 -19 22 -41 33 -24 10 -51 33 -64 54 -28 43 -40 80 -26 80 31 0 134 49
211 101 84 56 296 248 275 248 -5 1 -50 -35 -100 -80 -109 -98 -230 -179 -308
-208 -50 -18 -94 -26 -99 -18 0 1 -4 70 -7 152 -6 146 -7 150 -28 153 -23 3
-23 2 -24 -110 0 -62 -4 -132 -7 -155 l-7 -42 -40 18 c-88 40 -137 122 -137
228 0 63 -1 63 -30 63 -18 0 -31 -6 -36 -17z"/>
<path d="M2725 2208 c-2 -7 -9 -42 -15 -78 -26 -169 2 -260 80 -260 47 0 238
128 225 150 -4 6 -23 -3 -43 -20 -53 -42 -106 -62 -134 -51 -46 17 -51 34 -45
139 3 53 7 104 9 112 4 20 -70 28 -77 8z"/>
<path d="M3206 2044 c-9 -201 -22 -260 -67 -298 -17 -14 -35 -26 -40 -26 -5 0
-9 -7 -9 -15 0 -13 28 -15 195 -15 210 0 231 6 157 45 -57 31 -72 89 -79 308
l-6 177 -72 0 -72 0 -7 -176z"/>
</g>
</svg>
